<?xml version="1.0" encoding="UTF-8"?>
<svg id="Layer_2" data-name="Layer 2" xmlns="http://www.w3.org/2000/svg" xmlns:xlink="http://www.w3.org/1999/xlink" viewBox="0 0 566.66 592.52">
  <defs>
    <style>
      .cls-1 {
        fill: url(#linear-gradient-2);
      }

      .cls-2 {
        fill: url(#linear-gradient-6);
      }

      .cls-3 {
        fill: url(#linear-gradient-5);
      }

      .cls-4 {
        fill: url(#linear-gradient-7);
      }

      .cls-5 {
        fill: url(#linear-gradient-3);
      }

      .cls-6 {
        fill: url(#linear-gradient);
      }

      .cls-7 {
        fill: url(#linear-gradient-4);
      }

      .cls-8 {
        fill: url(#linear-gradient-8);
      }
    </style>
    <linearGradient id="linear-gradient" x1="266.12" y1="504.34" x2="539.26" y2="504.34" gradientTransform="translate(22.05 -20.45) rotate(2.77)" gradientUnits="userSpaceOnUse">
      <stop offset="0" stop-color="#62c4e3"/>
      <stop offset=".29" stop-color="#4fa0d0"/>
      <stop offset=".56" stop-color="#4287c3"/>
      <stop offset=".8" stop-color="#3a78bb"/>
      <stop offset="1" stop-color="#3873b9"/>
    </linearGradient>
    <linearGradient id="linear-gradient-2" x1="314.76" y1="403.58" x2="489.27" y2="595.81" gradientUnits="userSpaceOnUse">
      <stop offset="0" stop-color="#62c4e3"/>
      <stop offset=".22" stop-color="#5fc0e0"/>
      <stop offset=".45" stop-color="#59b4da"/>
      <stop offset=".67" stop-color="#4fa0d0"/>
      <stop offset=".88" stop-color="#4184c2"/>
      <stop offset="1" stop-color="#3873b9"/>
    </linearGradient>
    <linearGradient id="linear-gradient-3" x1="283.33" y1="574.75" x2="283.33" y2="0" gradientUnits="userSpaceOnUse">
      <stop offset="0" stop-color="#2484c6"/>
      <stop offset="1" stop-color="#74cede"/>
    </linearGradient>
    <linearGradient id="linear-gradient-4" x1="63.05" y1="104" x2="427.07" y2="468.02" gradientTransform="matrix(1,0,0,1,0,0)" xlink:href="#linear-gradient"/>
    <linearGradient id="linear-gradient-5" x1="128.07" y1="176.27" x2="136.34" y2="168" gradientUnits="userSpaceOnUse">
      <stop offset="0" stop-color="#3264af"/>
      <stop offset="1" stop-color="#173f6d"/>
    </linearGradient>
    <linearGradient id="linear-gradient-6" x1="130.24" y1="487.83" x2="284.94" y2="333.13" xlink:href="#linear-gradient-5"/>
    <linearGradient id="linear-gradient-7" x1="341.3" y1="355.43" x2="206.62" y2="309.13" gradientTransform="translate(132.06 -111.14) rotate(26.03)" gradientUnits="userSpaceOnUse">
      <stop offset="0" stop-color="#2484c6"/>
      <stop offset=".29" stop-color="#3e9ccd"/>
      <stop offset=".75" stop-color="#65c0d9"/>
      <stop offset="1" stop-color="#74cede"/>
    </linearGradient>
    <linearGradient id="linear-gradient-8" x1="426.23" y1="281.18" x2="291.35" y2="234.82" xlink:href="#linear-gradient-7"/>
  </defs>
  <g id="Layer_2-2" data-name="Layer 2">
    <g>
      <g>
        <path class="cls-6" d="m334.61,412.96c19.41-.43,40.71,11.65,55.81,26.81,20.96,21.06,41.48,42.56,62.07,63.98,16.12,16.77,34.93,28.55,58.19,32.54,6.2,1.06,12.29,1.58,18.49.27,1.65-.35,3.63-1.48,5.03.09,1.64,1.84.05,3.78-.58,5.58-18.72,53.53-76.86,62.67-116.25,35.27-8.43-5.87-15.87-12.81-22.96-20.16-22.62-23.47-44.7-47.5-68.67-69.59-15.29-14.09-33.89-22.49-54.17-27.13-7.33-1.68-7.6-2.69-3.6-9.06,11.9-18.93,27.08-33.32,50.15-37.31,5.79-1,10.74-1.4,16.47-1.29Z"/>
        <path class="cls-1" d="m332.78,419.94h0c.56,0,1.12,0,1.69.02h.15s.15,0,.15,0c.29,0,.57,0,.86,0,15.53,0,34.63,9.49,49.83,24.76,17.73,17.81,35.45,36.26,52.59,54.11,3.13,3.26,6.26,6.52,9.4,9.78,18.54,19.29,38.84,30.6,62.06,34.59,4.58.79,8.36,1.15,11.91,1.15,1.37,0,2.69-.05,3.99-.16-10.75,25.98-33.17,41.34-60.78,41.34-15.13,0-30.49-4.89-43.25-13.77-7-4.87-13.76-10.82-21.91-19.27-5.05-5.24-10.16-10.6-15.11-15.79-17.25-18.09-35.08-36.79-53.86-54.09-14.69-13.54-33.48-23.11-55.86-28.46,12.48-19.39,26.71-29.89,44.69-32.99,4.82-.83,8.96-1.2,13.45-1.2m0-7c-4.97,0-9.47.41-14.64,1.3-23.07,3.98-38.25,18.38-50.15,37.31-4.01,6.38-3.73,7.38,3.6,9.06,20.28,4.64,38.88,13.04,54.17,27.13,23.97,22.09,46.05,46.12,68.67,69.59,7.09,7.35,14.52,14.3,22.96,20.16,14.22,9.89,30.88,15.02,47.25,15.02,28.98,0,57.04-16.08,69.01-50.29.63-1.79,2.22-3.74.58-5.58-.55-.61-1.18-.81-1.84-.81-1.05,0-2.18.51-3.19.72-2.6.55-5.19.78-7.77.78-3.57,0-7.13-.43-10.72-1.05-23.27-3.99-42.07-15.77-58.19-32.54-20.59-21.42-41.11-42.92-62.07-63.98-14.83-14.9-35.65-26.82-54.79-26.82-.34,0-.68,0-1.02.01-.62-.01-1.23-.02-1.83-.02h0Z"/>
      </g>
      <path class="cls-5" d="m534.77,422.59c-13.73,26.58-31.02,50.63-53.22,70.98-3.77,3.45-6.3,3.66-9.98.04-11.78-11.59-23.57-23.16-35.44-34.65-7.1-6.87-14.23-13.72-21.39-20.52-4.36-4.13-3.74-6.99-.38-11.1,21.75-26.55,36.95-56.41,43.66-90.17,14.52-72.98-.24-138.23-54-191.7-29.05-28.88-64.74-45.7-105.87-49.38-67.12-6.02-120.94,19.05-162.43,71.3-23.15,29.15-35.04,62.99-38.18,99.89-4.72,55.59,9.34,105.74,45.58,148.61,30.1,35.6,68.14,58.42,114.45,66.45,25.83,4.48,48.59,14.96,67.86,32.94,4.57,4.27,9.14,8.54,13.68,12.85,9.32,8.81,18.54,17.72,27.51,26.9,5.04,5.16,4.77,6.14-2.57,8.42-35.06,10.92-70.93,13.12-107.32,10.02-3.95-.34-7.88-.75-11.78-1.25-38.6-4.88-74.78-17.52-107.91-38.15-11.12-6.93-21.57-14.29-31.35-22.11C47.38,465.42,12.86,403.2,2.67,325.6c-7.79-59.35,1.33-116.3,29.09-169.19,25.64-48.86,59.6-87.17,102.27-113.95,29.1-18.27,62.25-31.18,99.58-38.43,16.12-3.14,32.49-4.7,45.44-3.75,64.9-1.25,120.03,17.8,168.85,53.83,31.99,23.62,57.69,51.23,76.91,82.74,20.07,32.91,33.08,70.05,38.8,111.3,8.44,60.92-.44,119.46-28.84,174.44Z"/>
      <path class="cls-7" d="m502.23,284.39c0,66.96-24.97,128.08-66.1,174.57-7.1-6.87-14.23-13.72-21.39-20.52-4.36-4.13-3.74-6.99-.38-11.1,21.75-26.55,36.95-56.41,43.66-90.17,14.52-72.98-.24-138.23-54-191.7-29.05-28.88-64.74-45.7-105.87-49.38-67.12-6.02-120.94,19.05-162.43,71.3-23.15,29.15-35.04,62.99-38.18,99.89-4.72,55.59,9.34,105.74,45.58,148.61,30.1,35.6,68.14,58.42,114.45,66.45,25.83,4.48,48.59,14.96,67.86,32.94,4.57,4.27,9.14,8.54,13.68,12.85-30.95,12.77-64.86,19.81-100.42,19.81-15.81,0-31.29-1.39-46.32-4.07-31.13-5.51-60.36-16.49-86.68-31.91C47.38,465.42,12.86,403.2,2.67,325.6c-7.79-59.35,1.33-116.3,29.09-169.19,25.64-48.86,59.6-87.17,102.27-113.95,32.08-13.91,67.47-21.61,104.66-21.61,55.91,0,107.75,17.41,150.4,47.1,68.38,47.61,113.14,126.8,113.14,216.44Z"/>
      <path class="cls-3" d="m135.72,167.39c-2.4,3.11-4.75,6.28-7.03,9.5,2.21-3.22,4.56-6.39,7.03-9.5Z"/>
      <path class="cls-2" d="m364.05,563.45c-35.06,10.92-70.93,13.12-107.32,10.02-3.95-.34-7.88-.75-11.78-1.25-18.68-7.46-36.3-17.01-52.58-28.35-68.39-47.6-115.7-126.83-113.14-216.43,2.16-75.57,19.17-107.82,49.46-150.55-18.56,26.92-28.35,57.43-31.15,90.39-4.72,55.59,9.34,105.74,45.58,148.61,30.1,35.6,68.14,58.42,114.45,66.45,25.83,4.48,48.59,14.96,67.86,32.94,4.57,4.27,9.14,8.54,13.68,12.85,9.32,8.81,18.54,17.72,27.51,26.9,5.04,5.16,4.77,6.14-2.57,8.42Z"/>
      <g>
        <path class="cls-4" d="m166.74,273.49c9.87-13.42,23.69-19.41,39.52-22.35,18.24-3.39,36.36-7.48,54.51-11.38,8.55-1.84,8.59-1.98,10.3,6.41,6.78,33.14,13.48,66.29,20.35,99.41.8,3.86-.59,5.25-4.08,5.97-18.69,3.81-37.35,7.76-56.03,11.59-9.16,1.88-18.29,4.35-27.76,3.07-45.12-6.12-65.06-56.35-36.82-92.7Zm6.39,25.62c1.49-1.35,2.19-1.83,2.69-2.46,7.75-9.88,17.74-15.65,30.08-17.89,17.41-3.16,34.7-6.98,52.1-10.25,3.66-.69,4.71-2.02,3.43-5.36-1.09-2.86.57-7.75-5.8-6.31-14.78,3.34-29.66,6.17-44.49,9.28-9.66,2.03-19.58,3.51-27.46,10.31-6.53,5.64-11.32,12.24-10.54,22.67Z"/>
        <path class="cls-8" d="m403.99,315.99c-6,7.34-16.92,14.27-30.27,17.11-21.5,4.57-43.04,8.95-64.52,13.61-3.96.86-5.15-.79-5.84-4.15-3.75-18.33-7.57-36.64-11.4-54.95-3.24-15.48-6.39-30.98-9.89-46.4-.97-4.3-.04-6.12,4.37-7.03,22.03-4.55,43.95-9.66,66.01-13.96,23.6-4.6,47.04,6.16,58.89,26.25,12.48,21.16,10.66,46.37-7.36,69.52Zm-21.07-69.48c2.04-2.69,1.49-4.99-1.33-6.76-6.8-4.26-14.27-6.78-22.26-5.11-19.81,4.14-39.52,8.82-59.29,13.2-5.03,1.11-3.46,4.46-2.96,7.58.57,3.53,2.19,4.79,5.98,3.9,14.91-3.5,29.88-6.74,44.83-10.07,10.31-2.29,20.6-5.13,31.06-1.06,1.65.64,2.97-.13,3.98-1.67Z"/>
      </g>
    </g>
  </g>
</svg>