<?xml version="1.0" encoding="UTF-8"?>
<svg id="Layer_2" data-name="Layer 2" xmlns="http://www.w3.org/2000/svg" xmlns:xlink="http://www.w3.org/1999/xlink" viewBox="0 0 566.66 592.67">
  <defs>
    <style>
      .cls-1 {
        fill: url(#linear-gradient-2);
      }

      .cls-2 {
        fill: url(#linear-gradient-6);
      }

      .cls-3 {
        fill: url(#linear-gradient-5);
      }

      .cls-4 {
        fill: url(#linear-gradient-7);
      }

      .cls-5 {
        fill: url(#linear-gradient-3);
      }

      .cls-6 {
        fill: url(#linear-gradient);
      }

      .cls-7 {
        fill: url(#linear-gradient-4);
      }

      .cls-8 {
        fill: url(#linear-gradient-8);
      }
    </style>
    <linearGradient id="linear-gradient" x1="283.33" y1="574.75" x2="283.33" y2="0" gradientUnits="userSpaceOnUse">
      <stop offset="0" stop-color="#2484c6"/>
      <stop offset="1" stop-color="#74cede"/>
    </linearGradient>
    <linearGradient id="linear-gradient-2" x1="63.05" y1="104" x2="427.07" y2="468.02" gradientUnits="userSpaceOnUse">
      <stop offset="0" stop-color="#62c4e3"/>
      <stop offset=".29" stop-color="#4fa0d0"/>
      <stop offset=".56" stop-color="#4287c3"/>
      <stop offset=".8" stop-color="#3a78bb"/>
      <stop offset="1" stop-color="#3873b9"/>
    </linearGradient>
    <linearGradient id="linear-gradient-3" x1="128.07" y1="176.27" x2="136.34" y2="168" gradientUnits="userSpaceOnUse">
      <stop offset="0" stop-color="#3264af"/>
      <stop offset="1" stop-color="#173f6d"/>
    </linearGradient>
    <linearGradient id="linear-gradient-4" x1="130.24" y1="487.83" x2="284.94" y2="333.13" xlink:href="#linear-gradient-3"/>
    <linearGradient id="linear-gradient-5" x1="334.03" y1="356.44" x2="209.02" y2="313.47" gradientTransform="translate(132.06 -111.14) rotate(26.03)" gradientUnits="userSpaceOnUse">
      <stop offset="0" stop-color="#9e1f63"/>
      <stop offset=".29" stop-color="#b92a59"/>
      <stop offset=".76" stop-color="#e0394c"/>
      <stop offset="1" stop-color="#ef4047"/>
    </linearGradient>
    <linearGradient id="linear-gradient-6" x1="404.57" y1="296.44" x2="302.27" y2="227.52" xlink:href="#linear-gradient-5"/>
    <linearGradient id="linear-gradient-7" x1="177.13" y1="491.9" x2="538.45" y2="491.9" gradientTransform="translate(22.05 -20.45) rotate(2.77)" xlink:href="#linear-gradient-2"/>
    <linearGradient id="linear-gradient-8" x1="241.68" y1="345.58" x2="478.45" y2="606.39" gradientUnits="userSpaceOnUse">
      <stop offset="0" stop-color="#62c4e3"/>
      <stop offset=".22" stop-color="#5fc0e0"/>
      <stop offset=".45" stop-color="#59b4da"/>
      <stop offset=".67" stop-color="#4fa0d0"/>
      <stop offset=".88" stop-color="#4184c2"/>
      <stop offset="1" stop-color="#3873b9"/>
    </linearGradient>
  </defs>
  <g id="Layer_2-2" data-name="Layer 2">
    <g>
      <path class="cls-6" d="m534.77,422.59c-13.73,26.58-31.02,50.63-53.22,70.98-3.77,3.45-6.3,3.66-9.98.04-11.78-11.59-23.57-23.16-35.44-34.65-7.1-6.87-14.23-13.72-21.39-20.52-4.36-4.13-3.74-6.99-.38-11.1,21.75-26.55,36.95-56.41,43.66-90.17,14.52-72.98-.24-138.23-54-191.7-29.05-28.88-64.74-45.7-105.87-49.38-67.12-6.02-120.94,19.05-162.43,71.3-23.15,29.15-35.04,62.99-38.18,99.89-4.72,55.59,9.34,105.74,45.58,148.61,30.1,35.6,68.14,58.42,114.45,66.45,25.83,4.48,48.59,14.96,67.86,32.94,4.57,4.27,9.14,8.54,13.68,12.85,9.32,8.81,18.54,17.72,27.51,26.9,5.04,5.16,4.77,6.14-2.57,8.42-35.06,10.92-70.93,13.12-107.32,10.02-3.95-.34-7.88-.75-11.78-1.25-38.6-4.88-74.78-17.52-107.91-38.15-11.12-6.93-21.57-14.29-31.35-22.11C47.38,465.42,12.86,403.2,2.67,325.6c-7.79-59.35,1.33-116.3,29.09-169.19,25.64-48.86,59.6-87.17,102.27-113.95,29.1-18.27,62.25-31.18,99.58-38.43,16.12-3.14,32.49-4.7,45.44-3.75,64.9-1.25,120.03,17.8,168.85,53.83,31.99,23.62,57.69,51.23,76.91,82.74,20.07,32.91,33.08,70.05,38.8,111.3,8.44,60.92-.44,119.46-28.84,174.44Z"/>
      <path class="cls-1" d="m502.23,284.39c0,66.96-24.97,128.08-66.1,174.57-7.1-6.87-14.23-13.72-21.39-20.52-4.36-4.13-3.74-6.99-.38-11.1,21.75-26.55,36.95-56.41,43.66-90.17,14.52-72.98-.24-138.23-54-191.7-29.05-28.88-64.74-45.7-105.87-49.38-67.12-6.02-120.94,19.05-162.43,71.3-23.15,29.15-35.04,62.99-38.18,99.89-4.72,55.59,9.34,105.74,45.58,148.61,30.1,35.6,68.14,58.42,114.45,66.45,25.83,4.48,48.59,14.96,67.86,32.94,4.57,4.27,9.14,8.54,13.68,12.85-30.95,12.77-64.86,19.81-100.42,19.81-15.81,0-31.29-1.39-46.32-4.07-31.13-5.51-60.36-16.49-86.68-31.91C47.38,465.42,12.86,403.2,2.67,325.6c-7.79-59.35,1.33-116.3,29.09-169.19,25.64-48.86,59.6-87.17,102.27-113.95,32.08-13.91,67.47-21.61,104.66-21.61,55.91,0,107.75,17.41,150.4,47.1,68.38,47.61,113.14,126.8,113.14,216.44Z"/>
      <path class="cls-5" d="m135.72,167.39c-2.4,3.11-4.75,6.28-7.03,9.5,2.21-3.22,4.56-6.39,7.03-9.5Z"/>
      <path class="cls-7" d="m364.05,563.45c-35.06,10.92-70.93,13.12-107.32,10.02-3.95-.34-7.88-.75-11.78-1.25-18.68-7.46-36.3-17.01-52.58-28.35-68.39-47.6-115.7-126.83-113.14-216.43,2.16-75.57,19.17-107.82,49.46-150.55-18.56,26.92-28.35,57.43-31.15,90.39-4.72,55.59,9.34,105.74,45.58,148.61,30.1,35.6,68.14,58.42,114.45,66.45,25.83,4.48,48.59,14.96,67.86,32.94,4.57,4.27,9.14,8.54,13.68,12.85,9.32,8.81,18.54,17.72,27.51,26.9,5.04,5.16,4.77,6.14-2.57,8.42Z"/>
      <g>
        <path class="cls-3" d="m168.09,277.28c9.16-12.46,21.99-18.02,36.68-20.75,16.93-3.15,33.75-6.94,50.6-10.57,7.94-1.71,7.97-1.84,9.57,5.95,6.3,30.76,12.51,61.54,18.89,92.28.74,3.58-.55,4.88-3.78,5.54-17.34,3.54-34.67,7.2-52.01,10.76-8.51,1.75-16.98,4.04-25.77,2.85-41.88-5.68-60.39-52.31-34.18-86.05Zm5.93,23.78c1.39-1.26,2.03-1.7,2.49-2.28,7.19-9.17,16.46-14.53,27.92-16.61,16.16-2.93,32.21-6.48,48.36-9.51,3.39-.64,4.37-1.88,3.19-4.97-1.01-2.65.53-7.19-5.39-5.86-13.72,3.1-27.53,5.72-41.3,8.62-8.96,1.88-18.17,3.25-25.49,9.57-6.06,5.23-10.5,11.37-9.78,21.04Z"/>
        <path class="cls-2" d="m388.31,316.73c-5.57,6.82-15.71,13.24-28.1,15.88-19.96,4.24-39.95,8.31-59.89,12.63-3.68.8-4.78-.74-5.42-3.85-3.48-17.01-7.02-34.01-10.58-51.01-3.01-14.37-5.93-28.76-9.18-43.07-.9-3.99-.03-5.68,4.06-6.53,20.44-4.22,40.79-8.97,61.28-12.96,21.91-4.27,43.67,5.72,54.66,24.37,11.58,19.64,9.9,43.04-6.83,64.53Zm-19.56-64.49c1.89-2.49,1.38-4.63-1.24-6.28-6.31-3.96-13.25-6.29-20.67-4.74-18.39,3.84-36.69,8.18-55.03,12.25-4.67,1.03-3.21,4.14-2.75,7.03.53,3.28,2.03,4.44,5.55,3.62,13.84-3.25,27.73-6.26,41.61-9.35,9.57-2.13,19.12-4.76,28.83-.98,1.53.6,2.76-.12,3.69-1.55Z"/>
      </g>
    </g>
    <g>
      <path class="cls-4" d="m406.56,459c33.34,26.83,57.43,70.32,102,78.65,6.2,1.06,14.41.22,20.62-1.09,1.65-.35,3.63-1.48,5.03.09-10.88,56.86-76.92,70.36-116.83,40.85-33.69-26.41-59.4-61.6-91.63-89.75-29-32.86-49.99-21.07-100.52-42.81-13.74-6.24-42.53-26.28-46.28-42.41,12.87,2.63,99.46,19.38,131.74,14.35,18.39-2.87,30.54-6.78,42.46-13.56,12.95-7.37,26.28-15.91,34.24-12.33,13.91,6.27,2.35,19.37,1.96,45.07-.2,12.83,10.63,16.83,17.22,22.96Z"/>
      <path class="cls-8" d="m383.11,390.13v7c.59,0,1.06.08,1.4.23,3.05,1.38,3.69,1.66,1.1,13.82-1.39,6.54-3.12,14.68-3.27,24.76-.2,13.39,8.51,19.84,14.87,24.55,1.7,1.26,3.31,2.45,4.58,3.64l.18.17.19.16c10.22,8.22,19.45,17.98,29.22,28.3,21.25,22.46,43.23,45.68,75.88,51.78h.05s.05.02.05.02c2.25.39,4.79.58,7.54.58,3.14,0,6.58-.26,10.04-.74-3.96,11.72-10.99,21.51-20.64,28.65-11,8.14-25.2,12.62-39.99,12.62-15.52,0-30.69-4.88-42.71-13.74-18.17-14.26-34.42-31.61-50.14-48.39-12.9-13.78-26.24-28.02-40.79-40.77-19.19-21.59-35.67-25.3-56.51-29.99-12.78-2.88-27.27-6.14-46.12-14.24-10.86-4.95-26.47-16.02-35.46-26.27,24.27,4.47,72.39,12.54,103.11,12.54,6.31,0,11.71-.34,16.06-1.02,19.14-2.99,32.13-7.16,44.84-14.4,1.23-.7,2.46-1.41,3.69-2.12,8.24-4.75,17.58-10.13,22.81-10.13v-7m0,0c-8,0-19.12,6.99-29.96,13.17-11.92,6.79-24.07,10.7-42.46,13.56-4.18.65-9.26.94-14.98.94-38.47,0-105.55-12.99-116.76-15.29,3.75,16.13,32.54,36.17,46.28,42.41,50.53,21.74,71.52,9.95,100.52,42.81,32.23,28.16,57.94,63.34,91.63,89.75,13.67,10.11,30.41,15.17,46.95,15.17,31.73,0,62.73-18.64,69.88-56.02-.55-.61-1.18-.81-1.84-.81-1.05,0-2.18.51-3.19.72-4.24.9-9.43,1.57-14.26,1.57-2.23,0-4.4-.15-6.36-.48-44.57-8.33-68.66-51.83-102-78.65-6.59-6.13-17.41-10.13-17.22-22.96.39-25.7,11.96-38.79-1.96-45.07-1.29-.58-2.72-.85-4.28-.85h0Z"/>
    </g>
  </g>
</svg>