<?xml version="1.0" encoding="utf-8"?>
<!-- Generator: Adobe Illustrator 27.4.0, SVG Export Plug-In . SVG Version: 6.00 Build 0)  -->
<svg version="1.1" id="Layer_1" xmlns="http://www.w3.org/2000/svg" xmlns:xlink="http://www.w3.org/1999/xlink" x="0px" y="0px"
	 viewBox="0 0 800 800" style="enable-background:new 0 0 800 800;" xml:space="preserve">
<style type="text/css">
	.st0{fill:#50A4D5;}
</style>
<g>
	<path class="st0" d="M706.4,794.29c-3.08,0-6.17,0-9.25,0c-36.88,0-36.83-0.05-61.25-27.14c-8.25-9.16-17.21-17.69-25.23-27.03
		c-5.54-6.45-10.4-6.68-17.65-2.51c-42.37,24.39-88.05,39.73-136.35,46.49c-91.05,12.75-177-3.1-255.91-50.69
		C90.75,667.06,26.67,569.08,10.73,442.01c-14.53-115.87,17.98-219.14,94.73-307.61C159.73,71.82,226.89,29.55,307.62,9.51
		c14.45-3.58,14.93-3.22,14.96,12.01c0.04,21.25-0.44,42.51,0.21,63.73c0.3,9.8-2.76,14.58-12.51,17.53
		c-46.71,14.12-87.58,38.24-122.49,72.63c-49.12,48.4-78.94,106.74-88.28,174.72c-11.36,82.66,6.56,159.07,56.87,226.22
		c52.85,70.55,124.3,110.89,211.66,120.6c53.18,5.91,105.32-1.86,154.85-23.45c12.64-5.51,12.68-6.26,2.91-16.37
		c-7.61-7.88-14.75-16.24-22.61-23.86c-4.98-4.82-4.17-8.07,0.26-12.71c16.57-17.32,32.94-34.84,49.03-52.61
		c4.89-5.4,8.42-5.42,13.39-0.27c12.61,13.07,25.88,25.5,38.28,38.76c5.74,6.14,9.37,5.45,14.77-0.29
		c49.91-53.09,78.85-115.39,84.17-188.43c4.77-65.51-8.43-126.92-42.77-182.98C620,168.96,562.32,124.8,488.5,102.26
		c-9.34-2.85-12.45-6.95-12.26-16.49c0.46-23.28,0.17-46.6-0.5-69.88c-0.27-9.53,4.49-9.11,11.02-7.53
		c28.41,6.89,56.07,16.12,82.13,29.31c124.45,63,199.24,163.8,219.31,301.41c15.68,107.54-10.06,206.96-76.23,294.51
		c-9.68,12.81-20.72,24.64-31.69,36.39c-4.46,4.78-5.07,8.4-0.57,13c6.23,6.37,12.39,12.8,18.56,19.22
		c3.15,3.28,7.19,3.63,11.38,3.62c10.97-0.01,45.84,0.18,56.8-0.01c6.64-0.11,10.25,2.07,10.19,9.4c-0.18,23.3-0.13,46.6,0.03,69.9
		c0.05,6.64-3.02,9.24-9.36,9.18C754.97,794.21,718.73,794.29,706.4,794.29z"/>
	<path class="st0" d="M176.29,506.55c-0.86-33.3,13.83-59.69,35.51-83.72c24.98-27.69,48.9-56.34,73.08-84.74
		c11.4-13.38,11.28-13.65,24.43-2.49c51.94,44.05,103.76,88.24,155.83,132.14c6.07,5.12,5.57,9.02,0.88,14.42
		c-25.17,28.91-50.13,57.99-75.26,86.93c-12.33,14.19-23.86,29.27-40.61,38.84C270.38,653.51,176.19,598.58,176.29,506.55z
		 M218.27,539.2c0.71-3.97,1.24-5.57,1.25-7.17c0.15-25.1,8.97-46.45,25.94-65.11c23.93-26.31,46.86-53.53,70.64-79.99
		c5-5.56,5.02-8.96-1.15-12.67c-5.29-3.18-8.7-12.94-17.11-2.86c-19.49,23.38-39.81,46.07-59.66,69.15
		c-12.93,15.03-26.98,29.52-31.15,49.92C203.57,507.39,204.11,523.68,218.27,539.2z"/>
	<path class="st0" d="M608.55,283.16c-0.5,18.96-9.38,43.27-27.22,64.1c-28.73,33.56-57.76,66.85-86.35,100.52
		c-5.27,6.21-9.23,5.06-14.49,0.59c-28.72-24.37-57.54-48.63-86.37-72.86c-24.38-20.49-48.64-41.13-73.35-61.21
		c-6.89-5.6-7.65-9.62-1.72-16.47c29.59-34.16,58.33-69.08,88.3-102.9c32.06-36.17,82.9-47.88,126.76-30.64
		C580.31,182.45,608.67,224.51,608.55,283.16z M488.68,199.19c-0.07-6.74-3.81-9.71-10.52-9.05c-16.17,1.59-31.24,6.76-41.95,19.19
		c-26.57,30.8-52.29,62.33-78.48,93.46c-6.66,7.92,0,11.29,4.66,15.59c5.29,4.88,9.44,4.88,14.4-1.16
		c19.51-23.79,39.44-47.25,59.23-70.81c13.65-16.24,26.59-33.33,48.37-39.71C487.83,205.7,488.98,202.87,488.68,199.19z"/>
	<g>
		<path class="st0" d="M359.77,48.94v41.43H335.6V7.08h24.16v33.5h19.71V7.08h24.16v83.29h-24.16V48.94H359.77z"/>
		<path class="st0" d="M464.4,30.39l-11.23,2.07c0.49-2.24,0.73-4.11,0.73-5.61c0-9.68-5.88-14.52-17.63-14.52
			c-9.28,0-13.91,3.34-13.91,10.01c0,5,5.19,9.3,15.56,12.87c20.02,6.88,30.02,17.05,30.02,30.51c0,7.89-2.81,14.23-8.42,19.01
			c-5.61,4.78-13.08,7.17-22.39,7.17c-20.62,0-30.94-7.99-30.94-23.98c0-1.3,0.1-2.91,0.31-4.82l11.65-2.56
			c-0.9,3.54-1.34,6.61-1.34,9.21c0,10.33,5.92,15.5,17.76,15.5c9.48,0,14.22-3.72,14.22-11.17c0-5.53-5.68-10.39-17.02-14.58
			c-16.4-6.02-24.59-15.64-24.59-28.86c0-7.48,2.74-13.52,8.21-18.09c5.47-4.58,12.66-6.86,21.57-6.86
			C455.25,5.68,464.4,13.92,464.4,30.39z"/>
	</g>
</g>
</svg>
